<?xml version="1.0" encoding="UTF-8" standalone="no"?>
<!-- Generator: visioncortex VTracer -->

<svg
   id="svg"
   version="1.1"
   style="display: block;"
   viewBox="0 0 1024 1024"
   sodipodi:docname="cleaned-logo.svg"
   inkscape:version="1.2.2 (b0a84865, 2022-12-01)"
   inkscape:export-filename="cleaned-logo.png"
   inkscape:export-xdpi="96"
   inkscape:export-ydpi="96"
   xmlns:inkscape="http://www.inkscape.org/namespaces/inkscape"
   xmlns:sodipodi="http://sodipodi.sourceforge.net/DTD/sodipodi-0.dtd"
   xmlns:xlink="http://www.w3.org/1999/xlink"
   xmlns="http://www.w3.org/2000/svg"
   xmlns:svg="http://www.w3.org/2000/svg">
  <defs
     id="defs555">
    <linearGradient
       inkscape:collect="always"
       id="linearGradient2390">
      <stop
         style="stop-color:#0c92ff;stop-opacity:1;"
         offset="0"
         id="stop2388" />
      <stop
         style="stop-color:#2dc4ff;stop-opacity:1;"
         offset="1"
         id="stop2386" />
    </linearGradient>
    <linearGradient
       inkscape:collect="always"
       xlink:href="#linearGradient2390"
       id="linearGradient2392"
       x1="525.07648"
       y1="1032.8669"
       x2="521.54541"
       y2="-6.7495179"
       gradientUnits="userSpaceOnUse"
       gradientTransform="matrix(1.0193859,0,0,1,13.678269,2.4577427)" />
  </defs>
  <sodipodi:namedview
     id="namedview553"
     pagecolor="#ffffff"
     bordercolor="#000000"
     borderopacity="0.25"
     inkscape:showpageshadow="2"
     inkscape:pageopacity="0.0"
     inkscape:pagecheckerboard="0"
     inkscape:deskcolor="#d1d1d1"
     showgrid="true"
     inkscape:zoom="0.70696769"
     inkscape:cx="567.21121"
     inkscape:cy="492.95039"
     inkscape:window-width="1660"
     inkscape:window-height="977"
     inkscape:window-x="10"
     inkscape:window-y="35"
     inkscape:window-maximized="0"
     inkscape:current-layer="svg">
    <inkscape:grid
       type="xygrid"
       id="grid6933" />
  </sodipodi:namedview>
  <g
     id="g6931"
     transform="matrix(1.27008,0,0,1.27008,-113.05604,-142.60717)">
    <path
       d="M 0,0 3.5,-0.625 7,0 10.125,1.75 11.59375,3.1523438 13,5 14.34375,7.4414062 15.625,10.3125 16.835937,13.464844 18,17 l 0.586914,2.02002 0.577148,2.108886 0.556153,2.133545 L 20.25,25.375 20.744629,27.391846 21.203125,29.335937 22,33 22.537109,35.753906 23,39 l 0.161133,3.611816 0.04199,3.989746 0.01727,2.174897 0.01398,2.250885 0.0059,2.29248 0.0098,2.305176 0.03125,2.272949 0.03125,2.254395 0.01624,2.236511 -6.1e-4,2.212707 -0.01917,2.192688 -0.0531,2.144227 -0.09399,2.077758 L 23,73 22.384766,76.584961 21.609375,79.773437 20.842773,82.497559 20,85 18.775635,87.763916 18,90 19.980469,91.003906 23,92 l 3.050781,2.214844 1.605225,1.312256 1.656494,1.4104 1.732666,1.47876 1.728271,1.52124 1.678711,1.54688 L 36,103 l 2.414062,2.75 2.023438,2.6875 1.851562,2.74609 L 44,114 45.710937,116.97266 47.3125,120 48.761719,123.04688 50,126 50.894531,128.64062 51.625,131.25 52.304687,133.96484 53,137 l 0.820312,3.75391 0.451905,2.00659 0.477783,2.052 0.495361,2.05786 0.531983,2.05933 0.577636,2.05371 L 57,153 l 0.750488,1.93848 0.815918,1.88183 0.858155,1.83399 0.887939,1.7832 1.804687,3.41406 L 64,167 l 2.007812,2.83594 1.929688,2.47656 1.777344,2.11328 L 71,176 v 1 l -3.140625,0.46484 -1.996094,0.23633 -2.113281,0.23633 -2.066406,0.22461 -2.011719,0.24023 L 56,179 53.574219,179.85937 52,181 51.0625,184.3125 51,188 52.0625,190.6875 54,193 56.9375,195.1875 60,197 62.4375,197.8125 64,199 v 3.3125 L 63,206 60.625,209.1875 59,211 61.0625,209.8125 62.570312,208.58594 64,207 64.804687,205.03906 65.4375,202.9375 66.125,200.80859 67,199 69.9375,197.5 73,196 74.242187,194.05078 75.3125,191.8125 76.238281,189.64453 77,188 h 1 l 0.3125,2.875 -0.02344,1.92578 L 78,195 77.210937,197.48047 76.1875,200.0625 75.074219,202.63281 74,205 72.5,208.4375 71,211 69,212.8125 67,214 c -3.184368,1.12724 -3.435585,0.0551 -6.5625,-0.25 L 57,214 l -1.800461,0.67682 -1.907303,0.83197 -2.128997,0.82336 L 49,217 l -3.981689,0.26465 -2.031571,-0.0516 -2.100021,-0.1037 -2.231003,-0.0729 -2.298294,-0.0794 -2.32251,-0.10303 -2.347412,-0.104 -2.374268,-0.0825 -2.354248,-0.0776 -2.293258,-0.0834 -2.216507,-0.0845 -2.130692,-0.0792 -1.98381,-0.0898 L 15,216 12,215 8.7421875,214.23437 4.875,213.75 2.8469238,213.62842 0.82421875,213.72656 -1.1586914,214.11035 -3,215 l -1.5483398,1.77246 -1.3696289,2.25098 -1.2514649,2.48144 -1.1430664,2.62012 -1.0727539,2.58887 -0.9780271,2.54394 -0.874756,2.5105 L -12,234 -13.148438,236.90234 -14,240 l -0.351318,2.42969 -0.324463,2.8164 -0.313477,3.00464 -0.323242,3.18677 -0.358398,3.30981 -0.395508,3.39331 -0.430176,3.43946 L -17,265 l -0.640137,3.31836 -0.699707,3.22851 -0.703857,3.13111 -0.706299,3.00952 -0.712158,2.87476 -0.647217,2.69946 -0.545654,2.50244 L -22,288 -21.753906,291.44141 -21,294 l 1.8125,3.25 1.089844,1.80078 L -17,301 l 0.941406,2.10547 0.933594,2.33203 0.980469,2.54297 L -13,311 l 0.744629,1.9165 0.806152,2.07178 0.818848,2.12915 0.817871,2.13257 0.7944336,2.04077 0.7485351,1.97485 L -7,327 -6.3359375,330.17969 -6,333 l 0.1679688,2.49219 0.019531,2.38281 -0.027344,2.59766 L -6,343 -6.3789062,345.24609 -6.875,347.3125 -8,351 -8.75,354.125 -10,356 -12.496094,355.33984 -16,354 l -2.161621,-0.77734 -2.32666,-0.85157 -2.388672,-0.95117 -2.435547,-0.98242 -2.494141,-0.90039 -2.36914,-0.97852 -2.160889,-1.11352 L -34,346 l -0.673096,-2.14624 -0.209716,-2.38501 -0.03931,-2.37134 L -35,337 -36.191406,334.66016 -37.5625,333.0625 -40,330 v -2 h -2 l -0.839844,1.67969 L -44,332 l -2.128906,2.50781 -2.433594,2.61719 -2.441406,2.63281 L -53,342 c 0,0 -0.916421,1.25934 -1,2 -0.06417,0.56863 0.40625,1.66797 0.40625,1.66797 L -53,348 l 0.34375,3.48828 0.15625,3.82422 0.21875,3.86328 c 0,0 -0.0052,1.95378 -0.659634,2.52864 -0.745611,0.65492 -2.953647,0.37368 -2.953647,0.37368 l -1.92627,-0.45971 L -60,361 l -2.38623,-0.57739 -2.531739,-0.61402 -2.611328,-0.67382 -2.658203,-0.69727 -2.693359,-0.70898 -2.59961,-0.66993 -2.340576,-0.61547 L -80,356 h -4 l -1.6875,2.3125 L -87,362 -87.019531,364.63672 -87,367.5 -87.171875,370.37109 -88,373 -90.328125,374.97266 -93.25,376.5625 -96.140625,377.87891 -99,379 -101.83203,379.89062 -104,381 l -0.49609,1.85547 0.0586,2.33203 -0.14844,2.71484 L -105,391 l -1.10156,3.50391 -0.69605,1.84912 -0.76489,1.89697 -0.80591,1.93604 -0.84643,1.95068 -0.88623,1.95068 L -111,406 l -1.75391,3.58203 -1.87109,3.48047 -0.99487,1.72632 -1.05201,1.7268 -1.11523,1.72852 L -119,420 l -1.36914,1.82617 -1.45899,1.8457 -1.50415,1.83057 -1.54272,1.81006 -1.57202,1.78271 -1.5647,1.7251 -1.54053,1.65332 L -131,434 l -2.39453,2.49219 -2.29297,2.19531 -2.44141,2.09766 L -141,443 l -1.83154,1.33154 -2.0083,1.41455 -2.1062,1.43653 -2.17896,1.44238 -2.20044,1.41504 -2.22143,1.37793 -2.23633,1.33349 L -158,454 l -2.1543,1.104 -2.11132,1.00928 -2.07398,0.9419 -2.0354,0.88232 -2.0061,0.84326 -1.95093,0.79346 L -174,461 l -3.19922,1.20703 -2.86328,1.04297 -2.41016,0.82812 L -185,465 -188.31641,466.49609 -192,468 l -3.80469,0.95703 -1.99145,0.42285 -2.07886,0.43262 -2.21753,0.49902 -2.28638,0.53614 -2.31298,0.55908 L -209,472 l -2.24951,0.63623 -2.21533,0.67236 -2.18799,0.70508 -2.15967,0.73633 -2.14404,0.76367 -2.09424,0.79492 -2.02588,0.82764 L -226,478 l -3.41797,1.84766 -3.08203,1.96484 -2.86328,2.07031 L -238,486 l -2.41797,2.05469 -2.26953,2.13281 -2.16406,2.27734 L -247,495 l -2.27344,3.00391 -2.28906,3.24609 -1.14014,1.68164 -1.12548,1.69727 -1.10743,1.70361 L -256,508 l -1.92187,3.08984 -1.89063,3.09766 -1.96094,3.21875 -1.05761,1.71875 L -264,521 l -1.37207,2.16406 -1.47949,2.30469 -1.52686,2.34937 -1.55908,2.36938 -1.56299,2.3479 -1.54638,2.28101 -1.51758,2.18798 L -276,539 l -2.45312,3.08984 -2.23438,2.53516 -2.18359,2.27344 L -285,549 l -2.09766,2.16406 -2.15234,2.08594 -2.22656,1.92969 L -294,557 l -3.21094,1.75781 -3.41406,1.61719 -3.375,1.4375 -3,1.1875 -3.625,1.375 -3.375,0.625 -2.65234,0.28516 -2.91016,0.15234 -2.83984,-0.043 L -325,565 -327.00391,563.94922 -328.625,562.625 -331,560 l -1,-2 -0.34375,-2.21484 -0.15625,-2.72266 0.0391,-2.98438 L -332,547 l 1.21094,-2.89063 1.66406,-2.79687 1.9375,-2.74609 L -325,536 l 2.375,-2.22266 2.5,-2.02734 2.58984,-1.94922 L -315,528 l 2.25391,-1.51953 2.18359,-1.54297 2.19922,-1.70313 L -306,521 l 1.38135,-1.60742 1.45068,-1.81446 1.46094,-1.91137 1.45703,-1.97925 1.42969,-1.99292 1.37109,-1.97192 1.29541,-1.9292 L -295,506 l 1.66797,-2.87891 1.26953,-2.49609 0.96484,-2.08594 L -290,496 l 0.87988,-1.79785 1.00684,-2.11621 1.05395,-2.36963 L -286,487 l 0.97534,-3.20459 0.95435,-3.48291 0.97265,-3.61719 0.97266,-3.69531 0.94922,-3.69531 0.98047,-3.61719 1.02539,-3.47583 L -278,459 l 1.49805,-2.78003 1.58789,-2.41919 1.47802,-2.04956 L -272,450 l 2.75,-2.8125 3.25,-2.1875 2.07422,-1.08203 2.36328,-1.04297 2.57813,-0.97656 L -256,441 l 3.73438,-0.77344 1.96679,-0.3645 1.98633,-0.36206 3.89063,-0.75391 L -241,438 l 2.23438,-0.65234 1.70312,-0.78516 L -234,434 l 1.39844,-1.54224 1.35156,-1.66479 1.39063,-1.771 1.29687,-1.77197 2,-3.21484 L -226,422 l -2.25,0.68359 -1.75415,0.88575 -2.05835,1.11816 -2.25171,1.22363 -2.43188,1.31934 -2.59717,1.3999 L -242,430 l -2.56689,1.18604 -2.59327,1.11474 -2.68579,1.10156 -2.77905,1.09766 -2.89038,1.13281 -3.01587,1.13672 -3.14062,1.12354 L -265,439 l -3.625,1.07959 -3.78125,1.05713 -3.84253,1.03491 -1.93637,0.50974 -1.93985,0.50613 -3.87036,1.0061 -3.80542,0.97827 -3.70557,0.94336 L -295,447 l -3.10693,0.7832 -2.87354,0.73242 -2.72778,0.7146 -2.60425,0.70728 -2.53589,0.71704 -2.4563,0.73999 -2.37402,0.77197 L -316,453 l -2.30566,0.93896 -2.26465,1.01026 -2.21167,1.06445 -2.15552,1.11133 -2.08716,1.13867 -2.03393,1.18555 -1.9878,1.23974 L -333,462 l -1.94189,1.4165 -1.90577,1.47803 -1.85302,1.50952 -1.79932,1.53345 -1.74463,1.54712 -1.67334,1.53882 -1.59521,1.51855 L -347,474 l -2.55078,2.60156 -2.26172,2.46094 -2.125,2.45312 L -356,484 l -2.125,2.60937 -2.1875,2.70313 -2.23047,2.75781 L -365,495 l -1.45166,1.62402 -1.53662,1.68067 -1.56128,1.69067 -1.57544,1.69214 -1.57349,1.68237 -1.52807,1.63404 -1.46192,1.56689 L -377,508 l -1.89844,2.21484 -1.60156,1.91016 -1.61328,1.85156 L -384,516 l -2.66797,2.64844 -1.47949,1.41479 -1.54004,1.43677 -1.56738,1.4231 -1.58496,1.40112 -1.59717,1.37256 L -396,527 l -2.87891,2.26953 -2.87109,2.04297 -2.97656,1.89453 L -408,535 l -1.9248,0.91943 -2.03614,0.90479 -2.07397,0.8623 -2.09009,0.81348 -2.0686,0.75488 -2.02124,0.67871 L -424,541 l -3.06641,0.47266 -2.62109,0.0898 -2.32422,-0.17188 L -434,541 -437,539.8125 -439,538 -440.3125,535.75 -441,533 -441.3125,529.6875 -441,526 l 1.0625,-3.8125 0.83594,-2.01953 L -438,518 l 1.47656,-2.44922 1.71094,-2.55078 1.85938,-2.55078 L -431,508 l 1.95313,-2.16797 1.98437,-2.01953 2.04297,-1.96484 L -423,500 l 1.86328,-1.62891 1.88672,-1.62109 2.00391,-1.74219 L -415,493 l 2.71484,-2.50781 1.46192,-1.39356 1.51074,-1.47363 1.53809,-1.53613 1.56738,-1.61231 1.59521,-1.69433 L -403,481 l 1.61572,-1.88379 1.62256,-1.96777 1.62891,-2.04199 L -396.5,473 l 1.63672,-2.15332 1.63281,-2.21387 1.62354,-2.27636 L -390,464 l 1.57959,-2.47363 1.55713,-2.53418 1.53662,-2.55591 1.51416,-2.56128 1.49072,-2.5437 1.46631,-2.50708 1.43994,-2.45557 L -378,444 l 1.396,-2.23193 1.36572,-2.12354 1.32568,-2.02515 1.2876,-1.93188 1.25635,-1.85962 1.20068,-1.74976 L -368,429 l 1.63672,-2.26563 1.42578,-1.79687 1.38281,-1.51953 L -362,422 l 2.11719,-1.63672 2.32031,-1.61328 2.12109,-1.39063 L -353,416 l 3.23438,-1.64844 1.81811,-0.75781 L -346,413 l 2.08618,-0.25 2.18335,-0.0859 2.23901,-0.0278 2.30396,-0.0112 2.40356,-0.0776 2.3855,-0.12549 2.30176,-0.16601 L -328,412 l 3.14844,-0.92188 2.53906,-1.20312 2.29297,-1.39844 L -318,407 l 1.80078,-1.28906 1.69922,-1.46094 1.64453,-1.78906 L -311,400 l 1.20459,-1.76855 1.30713,-2.00489 1.33618,-2.13232 1.3396,-2.21924 1.29468,-2.23096 1.24438,-2.23779 1.18457,-2.23047 L -301,383 l 0.94824,-2.06641 0.8252,-1.96484 1.28906,-3.59375 c 0.77967,-1.77007 1.14809,-3.57274 1.42351,-5.46337 l -3.33757,0.24071 -1.97144,0.42286 L -304,371 l -2.19849,0.13574 -2.2976,0.0322 -2.417,0.0225 -2.52441,-0.003 -2.66113,-0.007 -2.69434,-0.0283 -2.66943,-0.0591 L -324,371 l -2.229,-0.13623 -2.07178,-0.17236 L -332.25,370.25 -336.14844,369.6875 -340,369 l -3.91406,-0.8125 -1.97534,-0.45288 -1.9856,-0.48462 -1.98755,-0.51782 -2.00854,-0.54859 -2.03858,-0.57861 L -356,365 l -2.18018,-0.62451 -2.22998,-0.65283 -2.25537,-0.6875 -2.27197,-0.72266 -2.27197,-0.75781 -2.271,-0.80078 -2.26709,-0.84717 L -374,359 l -2.2251,-0.98877 -2.20068,-1.04639 -2.17456,-1.08813 -2.14966,-1.12671 -2.13208,-1.15991 -2.09448,-1.18384 -2.04785,-1.20313 L -391,350 l -1.8584,-1.17188 -1.79004,-1.17187 -1.7539,-1.19214 -1.72266,-1.21411 -1.69922,-1.2395 -1.69922,-1.28003 -1.70996,-1.32666 L -405,340 l -1.89941,-1.53271 -1.95215,-1.60401 -1.95386,-1.63769 -1.94458,-1.66309 -1.91528,-1.6748 -1.86206,-1.66504 -1.79639,-1.64405 L -420,327 -422.81641,324.18359 -425.3125,321.5 -427.66016,318.80859 -430,316 l -1.29248,-1.54639 -1.32861,-1.60595 -1.32373,-1.63477 -1.30518,-1.65039 -1.2583,-1.63867 -1.21436,-1.63867 L -440,303 c 0,0 -1.3605,-2.19356 -1.99609,-3.31641 -0.59195,-1.04576 -1.13668,-2.11762 -1.69141,-3.18359 -0.49114,-0.94376 -1.04201,-1.86085 -1.44922,-2.84375 -0.35634,-0.86011 -0.75661,-1.73138 -0.86328,-2.65625 -0.10421,-0.90351 0.0454,-1.82829 0.23047,-2.71875 0.16333,-0.78572 0.3464,-1.59935 0.76953,-2.28125 0.4971,-0.80111 1.15745,-1.57692 2,-2 0.77147,-0.38738 1.69938,-0.35918 2.5625,-0.375 1.15244,-0.0211 2.31555,0.11082 3.4375,0.375 0.6808,0.1603 1.96826,0.72705 1.96826,0.72705 l 2.14893,0.96826 2.40552,1.10108 L -428,288 l 2.34644,1.23096 2.34497,1.28466 2.3977,1.34131 2.47339,1.39307 2.63159,1.45947 2.66529,1.47022 2.63085,1.44824 L -408,299 l 2.23633,1.20801 2.0918,1.1123 2.02197,1.05347 1.9624,1.00122 1.93506,0.97192 1.9165,0.93042 1.89942,0.88233 L -392,307 l 2.06152,0.80518 2.08692,0.76123 2.05346,0.71142 1.9856,0.65967 3.60547,1.15234 L -377,312 l 2.30591,0.5376 L -372,313 l 2.98828,0.20874 3.32422,0.0999 3.72778,0.0859 3.95972,0.043 2.02914,0.0137 2.04581,0.002 2.04817,-0.0158 2.04485,-0.035 2.0435,-0.0552 2.00484,-0.082 L -342,313 l 3.18604,-0.46436 2.86474,-0.59423 2.69702,-0.68238 2.5647,-0.75903 2.53149,-0.81177 2.4607,-0.86011 2.37402,-0.90429 L -321,307 l 2.30566,-0.9082 2.26465,-0.91993 2.21143,-0.94555 2.15576,-0.97632 2.08936,-1.02124 2.03564,-1.05298 1.98828,-1.07959 L -304,299 l 1.92578,-1.09229 1.88672,-1.11474 1.83691,-1.1565 1.78809,-1.19897 1.74121,-1.23999 1.68067,-1.30689 1.61523,-1.38476 L -290,289 l 1.39258,-1.70117 1.31055,-1.81446 1.26171,-1.87597 1.22266,-1.9209 1.19922,-1.93652 1.19141,-1.93848 1.19335,-1.92969 L -280,274 l 1.31445,-1.78125 1.35743,-1.71875 1.37548,-1.67529 1.39014,-1.63721 1.39404,-1.61768 1.39502,-1.57763 1.39551,-1.52832 L -269,261 l 2.64844,-2.67969 2.66406,-2.50781 2.75391,-2.41406 L -258,251 l 1.60498,-1.25293 1.67236,-1.27051 1.71704,-1.27124 1.75562,-1.26782 1.78101,-1.25415 1.80493,-1.24194 1.82715,-1.22998 L -244,241 l 1.8291,-1.18408 1.83496,-1.16358 1.84912,-1.14721 1.86182,-1.13013 1.87354,-1.11255 1.89209,-1.09839 1.9121,-1.08496 L -229,232 l 2.00977,-1.08691 2.03711,-1.07715 2.04003,-1.05493 2.03809,-1.03101 2.03027,-1.00562 2.00098,-0.96704 1.96094,-0.92236 L -213,224 l 3.40625,-1.43359 3.21875,-1.25391 3.20703,-1.17578 L -200,219 l 3.07422,-1.16797 3.23828,-1.20703 3.52734,-1.24219 1.96436,-0.66308 L -186,214 l 2.57471,-0.82129 2.8042,-0.87402 2.94555,-0.896 3.05054,-0.90869 3.08374,-0.90479 3.13501,-0.89209 3.18359,-0.87304 L -162,207 l 3.26953,-0.75195 3.26172,-0.70118 3.22119,-0.66992 3.12256,-0.62695 2.93115,-0.56445 2.81104,-0.54493 2.71435,-0.54589 L -138,202 l 2.73486,-0.72754 2.64014,-0.77246 2.46826,-0.77246 L -128,199 l 2.88281,-1.14063 2.24219,-1.10937 2.49609,-1.32031 L -118,194 l 2.16016,-1.49219 2.02734,-1.63281 1.9375,-1.80078 L -110,187 l 1.875,-2.54297 1.8125,-2.76953 1.72656,-2.90234 L -103,176 l 1.33594,-2.19141 1.22656,-2.18359 1.1875,-2.45313 L -98,166 l 0.730469,-2.22852 0.769531,-2.50586 0.779541,-2.64575 0.782959,-2.74487 0.773193,-2.76636 0.754151,-2.76098 0.72998,-2.73389 L -92,145 l 0.590332,-2.35986 0.538574,-2.20655 0.509033,-2.10473 0.487061,-2.01636 0.953125,-3.85938 L -88,129 -87.078125,126.10938 -86.125,123.5625 -85.144531,121.25 -84,119 l 1.550781,-2.5 1.636719,-2.4375 1.542969,-2.15234 L -78,110 l 1,-3 -3.5625,-1.125 -2.507812,-0.75 L -86,104 -89.367187,102.125 -91.135742,101.03394 -92.9375,99.875 -94.762695,98.678955 -96.570312,97.457031 -98.336914,96.217285 -100,95 -102.80469,92.761719 -105.3125,90.5625 -107.70313,88.285156 -110,86 -112.29688,83.808594 -114.5625,81.5 -116.76563,78.988281 -119,76 l -1.20117,-1.893066 -1.22071,-2.063965 -1.20654,-2.148194 -1.18408,-2.207275 -1.14893,-2.220947 -1.09326,-2.208741 -1.02636,-2.17871 L -128,59 -129.38281,55.367187 -130.4375,52.0625 -131.29297,48.910156 -132,46 -132.67578,43.433594 -133.25,41 -133.68359,38.601562 -134,36 l -0.22266,-3.226563 -0.0898,-3.398437 0.0664,-3.316406 L -134,23 -133.53516,20.535156 -132.875,18.4375 -131,15 l 2.5,-2.5 3.5,-1.5 2.41406,-0.339844 2.71094,-0.09766 2.89453,0.121094 L -114,11 l 2.88672,0.472656 2.92578,0.652344 3.02734,0.84375 L -102,14 l 3.378906,1.21875 3.496094,1.40625 3.539063,1.578125 1.786132,0.865234 L -88,20 l 1.823242,1.025391 1.825196,1.083984 1.809814,1.118164 1.791748,1.147461 1.77417,1.170898 1.729736,1.172852 L -74,29 l 2.714844,1.96875 2.472656,1.90625 2.386719,1.988281 L -64,37 -61.292969,39.417969 -58.5,42.0625 l 2.761719,2.824219 1.372558,1.509277 L -53,48 l 1.361816,1.748535 1.345215,1.833496 1.318604,1.88086 1.286865,1.912109 1.249756,1.916016 1.203369,1.916015 1.150391,1.908692 L -43,63 l 0.998047,1.841309 0.923828,1.79541 1.640625,3.425781 1.378906,3.035156 L -37,76 -36.457031,79.410156 -36,82 c 3.003641,-1.607423 6.563405,-1.818698 9,-2 l 0.488281,-2.560059 -0.175781,-3.588379 -0.128906,-3.960937 -0.09424,-2.111328 L -27,65.625 l -0.0542,-2.151367 -0.03564,-2.153321 -0.02344,-2.146545 -0.01172,-2.134705 -0.0078,-2.133239 0.01172,-2.076721 L -27,49 -26.660156,46.006836 -26.1875,43.460937 -25.629639,41.142334 -25,39 l 0.666748,-2.101318 0.719971,-2.027588 0.778808,-1.941895 L -22,31 l 0.893066,-2.01123 0.938965,-2.016114 0.975098,-1.979004 1.005371,-1.931152 1.028809,-1.853027 1.04541,-1.791504 1.056152,-1.736817 L -14,16 -11.917969,12.800781 -9.875,9.875 -7.8710937,7.2539062 -6,5 -4.4101562,3.2148438 -2.9375,1.8125 Z"
       transform="translate(676,233)"
       style="fill:#dad0cd"
       id="path4"
       sodipodi:nodetypes="ccccccccccccccccccccccccccccccccccccccccccccccccccccccccccccccccccccccccccccccccccccccccccccccccccccccccccccccccccccccccccccccccccccccccccccccccccccccccccccccccccccccccccccccccccccccccccccccccccccccccccccccccccccccccccccccccccccscccccsccccccccccccccccccccccccccccccccccccccccccccccccccccccccccccccccccccccccccccccccccccccccccccccccccccccccccccccccccccccccccccccccccccccccccccccccccccccccccccccccccccccccccccccccccccccccccccccccccccccccccccccccccccccccccccccccccccccccccccccccccccccccccccccccccccccccccccccccccccccccccccccccccccccccccccccccccccccccccccccccccccccccccccccccccccccccccccccccccccccccccccccccccccccccccccccccccccccccccccccccccccccccccccccccccccccccccccccccccccccccccccccccssssssssscccccccccccccccccccccccccccccccccccccccccccccccccccccccccccccccccccccccccccccccccccccccccccccccccccccccccccccccccccccccccccccccccccccccccccccccccccccccccccccccccccccccccccccccccccccccccccccccccccccccccccccccccccccccccccccccccccccccccccccccccccccccccccccccccccccccccccccccccccccccccccccccccccccccccc" />
    <path
       d="m 0,0 c 1.1071457,-0.42277937 2.3148781,-0.625 3.5,-0.625 1.1851219,0 2.3841503,0.22575909 3.5,0.625 1.124095,0.40219101 2.1648204,1.0404914 3.125,1.75 0.544402,0.4022764 1.017573,0.8977268 1.46875,1.4023438 C 12.10963,3.7293269 12.577878,4.3512674 13,5 c 0.50663,0.7786071 0.930153,1.6096364 1.34375,2.4414062 0.466614,0.9383923 0.879665,1.9030862 1.28125,2.8710938 0.431336,1.039721 1.210937,3.152344 1.210937,3.152344 L 18,17 l 0.586914,2.02002 0.577148,2.108886 0.556153,2.133545 L 20.25,25.375 20.744629,27.391846 21.203125,29.335937 22,33 22.537109,35.753906 23,39 l 0.161133,3.611816 0.04199,3.989746 0.01727,2.174897 0.01398,2.250885 0.0059,2.29248 0.0098,2.305176 0.03125,2.272949 0.03125,2.254395 0.01624,2.236511 -6.1e-4,2.212707 -0.01917,2.192688 -0.0531,2.144227 -0.09399,2.077758 L 23,73 22.384766,76.584961 21.609375,79.773437 20.842773,82.497559 20,85 18.775635,87.763916 18,90 19.980469,91.003906 23,92 l 3.050781,2.214844 1.605225,1.312256 1.656494,1.4104 1.732666,1.47876 1.728271,1.52124 1.678711,1.54688 L 36,103 l 2.414062,2.75 2.023438,2.6875 1.851562,2.74609 L 44,114 45.710937,116.97266 47.3125,120 48.761719,123.04688 50,126 50.894531,128.64062 51.625,131.25 52.304687,133.96484 53,137 l 0.820312,3.75391 0.451905,2.00659 0.477783,2.052 0.495361,2.05786 0.531983,2.05933 0.577636,2.05371 L 57,153 l 0.750488,1.93848 0.815918,1.88183 0.858155,1.83399 0.887939,1.7832 1.804687,3.41406 L 64,167 l 2.007812,2.83594 1.929688,2.47656 1.777344,2.11328 L 71,176 l 1.872456,1.8114 -5.013081,-0.34656 -1.996094,0.23633 -2.113281,0.23633 -2.066406,0.22461 -2.011719,0.24023 L 56,179 53.574219,179.85937 52,181 51.0625,184.3125 51,188 52.0625,190.6875 54,193 56.9375,195.1875 60,197 62.4375,197.8125 64,199 v 3.3125 L 63,206 60.625,209.1875 59,211 61.0625,209.8125 62.570312,208.58594 64,207 64.804687,205.03906 65.4375,202.9375 66.125,200.80859 67,199 69.9375,197.5 73,196 74.242187,194.05078 75.3125,191.8125 76.238281,189.64453 77,188 h 1 l 0.3125,2.875 -0.02344,1.92578 L 78,195 77.210937,197.48047 76.1875,200.0625 75.074219,202.63281 74,205 72.5,208.4375 71,211 l -2,1.8125 c -3.447222,3.09657 -5.096793,0.89387 -8.5625,0.9375 L 57,214 l -1.800461,0.67682 -1.907303,0.83197 -2.128997,0.82336 L 49,217 l -3.981689,0.26465 -2.031571,-0.0516 -2.100021,-0.1037 -2.231003,-0.0729 -2.298294,-0.0794 -2.32251,-0.10303 -2.347412,-0.104 -2.374268,-0.0825 -2.354248,-0.0776 -2.293258,-0.0834 -2.216507,-0.0845 -2.130692,-0.0792 c -1.778526,0.0402 -3.555756,-0.12382 -5.315851,-0.38715 C 10.019335,215.2101 5.1733524,213.6687 0.82421875,213.71484 L -1.1586914,214.09717 -3,215 l -1.5483398,1.8208 -1.3696289,2.30811 -1.2514649,2.52246 -1.1430664,2.66113 -1.0727539,2.66504 -0.9780271,2.57324 -0.821533,2.3645 L -12,234 l -2,3 v -2 l -2.972656,-0.30859 -1.95459,-0.0696 -2.135254,-0.0593 -2.182129,-0.10034 -2.23584,-0.12622 -2.282715,-0.14551 L -30,234 -32.068848,233.73145 -34.050781,233.41406 -37.875,232.6875 -41.59375,231.875 -45,231 -47.84375,230.125 -50.375,229.1875 -52.738281,228.15234 -55,227 -57.292969,225.69141 -59.5625,224.25 -61.785156,222.67969 -64,221 -66.246094,219.25781 -68.5,217.375 -70.734375,215.32031 -73,213 -75.390625,210.24219 -77.75,207.25 -79.996094,204.12891 -82,201 -83.535156,198.08984 -84.8125,195.1875 -85.945312,192.17578 -87,189 l -1.117187,-3.45703 -1.070313,-3.66797 -0.96875,-3.77344 -0.441406,-1.9834 L -91,174 l -0.347656,-2.37598 -0.308594,-2.47558 -0.280518,-2.46826 -0.250732,-2.43018 -0.217529,-2.34814 -0.20044,-2.19874 L -93,156 l -1,-3 0.281982,-2.07788 0.573487,-2.38696 0.630371,-2.65699 0.70166,-2.81567 0.709473,-2.87622 0.716308,-2.85816 0.721192,-2.79101 L -89,132 l 0.980469,-3.70313 0.894531,-2.98437 0.949219,-2.72656 L -85,120 c 1.450952,-2.96142 2.905855,-5.00662 3.6875,-5.5625 l 1.824219,-2.37891 L -78,110 l 1,-3 -3.5625,-1.125 -2.507812,-0.75 L -86,104 -89.367187,102.125 -91.135742,101.03394 -92.9375,99.875 -94.762695,98.678955 -96.570312,97.457031 -98.336914,96.217285 -100,95 -102.80469,92.761719 -105.3125,90.5625 -107.70313,88.285156 -110,86 -112.29688,83.808594 -114.5625,81.5 -116.76563,78.988281 -119,76 l -1.20117,-1.893066 -1.22071,-2.063965 -1.20654,-2.148194 -1.18408,-2.207275 -1.14893,-2.220947 -1.09326,-2.208741 -1.02636,-2.17871 L -128,59 -129.38281,55.367187 -130.4375,52.0625 -131.29297,48.910156 -132,46 -132.67578,43.433594 -133.25,41 -133.68359,38.601562 -134,36 l -0.22266,-3.226563 -0.0898,-3.398437 c 0,0 0.011,-2.212106 0.0664,-3.316406 0.0513,-1.021539 0.11008,-2.044848 0.24606,-3.058594 0.11115,-0.828676 0.26151,-1.653846 0.46484,-2.464844 0.17826,-0.711022 0.37327,-1.4231 0.66016,-2.097656 0.51082,-1.201091 1.09306,-2.392453 1.875,-3.4375 0.70604,-0.943607 1.52411,-1.839293 2.5,-2.5 1.05106,-0.711604 2.2775,-1.158535 3.5,-1.5 0.78266,-0.218611 1.60458,-0.26848 2.41406,-0.339844 0.90074,-0.07941 1.80671,-0.100283 2.71094,-0.09766 0.96568,0.0028 1.93147,0.0499 2.89453,0.121094 0.99635,0.07365 1.99036,0.182905 2.98047,0.31641 0.96631,0.130295 2.88672,0.472656 2.88672,0.472656 l 2.92578,0.652344 3.02734,0.84375 L -102,14 l 3.378906,1.21875 3.496094,1.40625 3.539063,1.578125 1.786132,0.865234 L -88,20 l 1.823242,1.025391 1.825196,1.083984 1.809814,1.118164 1.791748,1.147461 1.77417,1.170898 1.729736,1.172852 L -74,29 l 2.714844,1.96875 2.472656,1.90625 2.386719,1.988281 L -64,37 -61.292969,39.417969 -58.5,42.0625 l 2.761719,2.824219 1.372558,1.509277 L -53,48 l 1.361816,1.748535 1.345215,1.833496 1.318604,1.88086 1.286865,1.912109 1.249756,1.916016 1.203369,1.916015 1.150391,1.908692 L -43,63 l 0.998047,1.841309 0.923828,1.79541 1.640625,3.425781 1.378906,3.035156 L -37,76 -36.457031,79.410156 -36,82 c 0.482935,2.736634 8.357988,1.366069 9,-2 0.119759,-3.764136 0.302053,-6.469446 0.183594,-10.109375 L -26.910646,67.779297 -27,65.625 l -0.0542,-2.151367 -0.03564,-2.153321 -0.02344,-2.146545 -0.01172,-2.134705 -0.0078,-2.133239 0.01172,-2.076721 L -27,49 -26.660156,46.006836 -26.1875,43.460937 -25.629639,41.142334 -25,39 l 0.666748,-2.101318 0.719971,-2.027588 0.778808,-1.941895 L -22,31 l 0.893066,-2.01123 0.938965,-2.016114 0.975098,-1.979004 1.005371,-1.931152 1.028809,-1.853027 1.04541,-1.791504 c 0,0 0.699774,-1.160532 1.056152,-1.736817 C -14.708961,17.118144 -14.356736,16.557619 -14,16 c 0.685673,-1.071786 1.370717,-2.144276 2.082031,-3.199219 C -11.252979,11.814541 -9.875,9.875 -9.875,9.875 c 0,0 1.3185449,-1.7609716 2.0039063,-2.6210938 C -7.262593,6.4902435 -6.6366504,5.7403582 -6,5 -5.4804652,4.395835 -4.9641228,3.7876027 -4.4101562,3.2148438 -3.9389061,2.7276074 -3.4742819,2.2264339 -2.9375,1.8125 -2.026381,1.1098999 -1.0748563,0.41044923 0,0 Z"
       transform="translate(676,233)"
       style="fill:#dbd0cc"
       id="path6"
       sodipodi:nodetypes="ssssssssccccccccccccccccccccccccccccccccccccccccccccccccccccccccccccccccccccccccccccccccccccccccccccccccccccccccccccccccccccccccccccccccccccsccccccccccccccccccccccccccccccccccccccccccccccccccccccccccccccccccccccccccccccccccccccccccccccccccccccccccccccssssssssssscccccccccccccccccccccccccccccccccccccccscccccccccccccccccccccccccssscsssss" />
    <path
       d="M 2,0 V 3.5625 L 1.6601562,6.0546875 1,9 -0.12890625,12.445313 -0.81298828,14.287109 -1.5625,16.1875 -2.3666992,18.134766 -3.2148438,20.101562 -4.1010742,22.071289 -5,24 -6.7539062,27.585937 -8.625,31.0625 -9.6198731,32.788574 -10.671875,34.515625 -11.787109,36.244141 -13,38 l -1.369141,1.826172 -1.458984,1.845703 -1.50415,1.830566 -1.542725,1.810059 -1.572021,1.782715 -1.564698,1.725097 -1.540527,1.653321 L -25,52 -27.394531,54.492187 -29.6875,56.6875 -32.128906,58.785156 -35,61 l -1.831543,1.331543 -2.008301,1.414551 -2.106201,1.436523 -2.178955,1.442383 -2.200439,1.415039 -2.221436,1.37793 -2.236328,1.333496 L -52,72 l -2.154297,1.104004 -2.111328,1.009277 -2.073975,0.941895 -2.0354,0.882324 -2.006104,0.843262 -1.950927,0.793457 L -68,79 -71.199219,80.207031 -74.0625,81.25 -76.472656,82.078125 -79,83 -82.316406,84.496094 -86,86 l -3.804687,0.957031 -1.991456,0.422852 -2.078857,0.432617 -2.217529,0.499023 -2.286377,0.536133 -2.312984,0.559082 L -103,90 l -2.24951,0.63623 -2.21533,0.672364 -2.18799,0.705078 -2.15967,0.736328 -2.14404,0.763672 -2.09424,0.794922 -2.02588,0.827636 L -120,96 -123.41797,97.847656 -126.5,99.8125 -129.36328,101.88281 -132,104 l -2.41797,2.05469 -2.26953,2.13281 -2.16406,2.27734 L -141,113 l -2.27344,3.00391 -2.28906,3.24609 -1.14014,1.68164 -1.12548,1.69727 -1.10743,1.70361 L -150,126 l -1.92187,3.08984 -1.89063,3.09766 -1.96094,3.21875 -1.05761,1.71875 L -158,139 l -1.37207,2.16406 -1.47949,2.30469 -1.52686,2.34937 -1.55908,2.36938 -1.56299,2.3479 -1.54638,2.28101 -1.51758,2.18798 L -170,157 l -2.45312,3.08984 -2.23438,2.53516 -2.18359,2.27344 L -179,167 l -2.09766,2.16406 -2.15234,2.08594 -2.22656,1.92969 L -188,175 l -3.21094,1.75781 -3.41406,1.61719 -3.375,1.4375 -3,1.1875 -3.625,1.375 -3.375,0.625 -2.65234,0.28516 -2.91016,0.15234 -2.83984,-0.043 L -219,183 -221.00391,181.94922 -222.625,180.625 -225,178 l -1,-2 -0.34375,-2.21484 -0.15625,-2.72266 0.0391,-2.98438 L -226,165 l 1.21094,-2.89063 1.66406,-2.79687 1.9375,-2.74609 L -219,154 l 2.375,-2.22266 2.5,-2.02734 2.58984,-1.94922 L -209,146 l 2.25391,-1.51953 2.18359,-1.54297 2.19922,-1.70313 c 0,0 0.79026,-1.02792 1.44807,-1.7005 0.59326,-0.60658 1.58511,-1.37362 2.29656,-2.14129 0.52636,-0.56796 0.97375,-1.2044 1.45068,-1.81446 0.4939,-0.63177 0.97973,-1.26988 1.46094,-1.91137 0.49161,-0.65534 0.97541,-1.31653 1.45703,-1.97925 0.48063,-0.66137 1.42969,-1.99292 1.42969,-1.99292 l 1.37109,-1.97192 1.29541,-1.9292 L -189,124 l 1.66797,-2.87891 1.26953,-2.49609 0.96484,-2.08594 L -184,114 l 0.87988,-1.79785 1.00684,-2.11621 1.05395,-2.36963 L -180,105 l 0.97534,-3.20459 0.95435,-3.48291 0.97265,-3.617188 L -176.125,91 l 0.94922,-3.695313 0.98047,-3.617187 1.02539,-3.47583 L -172,77 l 1.49805,-2.780029 1.58789,-2.41919 1.47802,-2.04956 L -166,68 -163.25,65.1875 -160,63 l 2.07422,-1.082031 2.36328,-1.042969 2.57813,-0.976563 L -150,59 l 3.73438,-0.773438 1.96704,-0.36499 L -142.3125,57.5 -138.42578,56.753906 -135,56 -132.73047,55.277344 -131,54.4375 -128,52 l 1.96484,-2.375 1.97266,-2.6875 1.77734,-2.597656 c 4.63377,-7.668896 2.36137,-6.271528 9.04688,-10.945313 l 1.59912,-1.149902 L -110,31 l 1.6665,-1.396973 1.66553,-1.466308 1.63574,-1.480469 1.59473,-1.46875 1.55176,-1.417969 1.45215,-1.351562 C -96.964679,18.005168 -93.945225,17.038837 -89,18 l 3.7854,0.161133 1.984879,0.02911 2.077377,0.01288 2.223496,0.01727 2.301895,0.01398 2.339599,0.0059 2.349854,0.0098 2.312256,0.03125 2.295166,0.03125 2.283707,0.01642 2.269027,-7.93e-4 2.261582,-0.02081 2.228408,-0.05438 2.179657,-0.09436 L -54,18 l 3.914307,-0.588867 3.624756,-0.754883 3.393798,-0.827148 L -40,15 l 2.592529,-0.696289 2.333252,-0.663086 2.198975,-0.682617 L -30.6875,12.25 -28.298584,11.487305 -25.851562,10.6875 -23.426758,9.8632813 -21,9 -18.557617,8.0742188 -16.148437,7.125 -13.809814,6.1787109 -11.5625,5.25 -9.4304199,4.3603516 -7.4414062,3.515625 -4,2 C -2.0843253,0.82957807 2,-1.916275 2,0 Z"
       transform="translate(570,615)"
       style="fill:#b5ada9"
       id="path8"
       sodipodi:nodetypes="sccccccccccccccccccccccccccccccccccccccccccccccccccccccccccccccccccccccccccccccccccccccccccccccccccccccccccccccccccccccccccccccccssssscccccccccccccccccccccccccccccccccccccccccccccccccccccccccccccccccccccccccccccccccccccs" />
    <path
       d="M 0,0 1.96875,-0.42578125 4.0625,-0.25 6.34375,0.26953125 9,1 12.34375,1.6992187 16.0625,2.4375 19.910156,3.2890625 21.910645,3.6884766 24,4 l 2.257324,0.1083984 2.30127,0.040039 2.254394,0.060059 L 33,4.3125 35.101074,4.4985352 37.019531,4.8125 40,6 c 1.804811,0.7190858 1.570891,-0.9895023 0.6875,5.8125 -0.251271,1.934757 -0.453224,2.549431 -0.71875,3.816406 -0.14833,0.707768 -0.488281,2.11377 -0.488281,2.11377 L 39,20 38.652344,22.425293 38.34375,24.964844 38.023682,27.580566 37.6875,30.25 37.310303,32.942871 36.902344,35.644531 36.472168,38.338379 36,41 35.453613,43.603027 34.878906,46.136719 34.311768,48.59082 33.75,50.9375 l -0.567627,2.202148 -0.510498,2.075196 c 0,0 -0.404799,2.51652 -0.5855,3.785156 -0.105656,0.74177 0.0012,2.21307 0.190969,3.300781 C 32.437412,63.218351 33,65 33,65 l 1.8125,3.25 1.089844,1.800781 L 37,72 37.941406,74.105469 38.875,76.4375 39.855469,78.980469 41,82 l 0.744629,1.916504 0.806152,2.071777 0.818848,2.129151 L 44.1875,90.25 44.981934,92.290771 45.730469,94.265625 47,98 47.664062,101.17969 48,104 l 0.167969,2.49219 0.01953,2.38281 -0.02734,2.59766 L 48,114 47.621094,116.24609 47.125,118.3125 46,122 45.25,125.125 44,127 41.503906,126.33984 38,125 l -2.161621,-0.77734 -2.32666,-0.85157 -2.388672,-0.95117 -2.435547,-0.98242 -2.494141,-0.90039 -2.36914,-0.97852 L 21.66333,118.44507 20,117 19.326904,114.85376 19.117187,112.46875 19.077881,110.09741 19,108 17.808594,105.66016 16.4375,104.0625 14,101 v -2 h -2 l -0.847656,1.67578 c 0,0 -0.685414,1.59639 -1.152344,2.32422 -0.5888859,0.91793 -2.0585938,2.54297 -2.0585938,2.54297 L 5.5625,108.1875 c 0,0 -1.5502406,1.80671 -2.3710937,2.66797 C 2.4862727,111.59532 1.6169835,112.18519 1,113 c -0.41470104,0.54767 -0.98802716,1.80861 -0.98802716,1.80861 0,0 -2.86475744,-2.45321 -4.01197284,-3.93361 -0.5266929,-0.67966 -1.2890625,-2.23437 -1.2890625,-2.23437 L -7,106 -9.5234375,102.92188 -10.925293,101.29272 -12.375,99.625 -13.836426,97.927979 -15.28125,96.238281 -16.691406,94.57666 -18,93 -20.09375,90.292969 -21.875,87.8125 -23.5,85.414062 -25,83 -26.5,80.335937 -27.875,77.6875 -29.054687,75.324219 -30,73 -30.609375,70.707031 -31,68 -31.273437,64.25 -31.34375,62.177246 -31.375,60 l -0.0078,-2.282715 0.04687,-2.303223 0.118164,-2.276367 L -31,51 -30.164062,47.523437 -29,44.375 -27.605469,41.238281 -26,38 l 0.86084,-1.787598 0.900879,-1.856933 0.943359,-1.887696 0.982422,-1.905273 1.017578,-1.893555 1.056641,-1.891601 1.095215,-1.891114 L -18,23 l 1.209473,-1.882324 1.247558,-1.86377 1.265137,-1.833984 L -13,15.625 l 1.285645,-1.744141 1.272949,-1.689453 1.2495115,-1.628418 L -8,9 -5.9023437,6.0898437 -3.9375,3.5625 -1.96875,1.4570312 Z"
       transform="translate(622,462)"
       style="fill:#ece3dd"
       id="path10"
       sodipodi:nodetypes="ccccccccccccccccsssccccccccccccccccssccccccccccccccccccccccccccccccccccccccccccccccsccsscscccccccccccccccccccccccccccccccccccccccccccccccccc" />
    <path
       d="M 0,0 C 0.63806135,-0.19318943 1.424671,-0.33680996 2,0 2.7873609,0.46093794 2.9175967,1.5779492 3.3398438,2.3867188 3.9055651,3.4702981 4.9375,5.6875 4.9375,5.6875 c 1.9491178,3.9827449 4.0571653,7.449809 6.546875,10.683594 10.327658,11.866156 20.89355,20.48627 32.089355,27.713623 l 2.086426,1.524658 1.86377,1.611328 L 49,49 l 0.831543,2.091797 0.414551,2.236328 0.127197,2.269287 L 50.25,57.875 l -0.2854,2.248291 -0.472413,2.14624 -0.665039,2.006348 C 47.876562,66.804913 45.488308,68.551416 43.375,69.5625 41.262591,70.562053 38.971086,71.11598 37,72 c -1.185799,0.539638 -3.433594,1.867187 -3.433594,1.867187 -1.20702,0.694692 -2.418101,1.382253 -3.628906,2.070313 -1.279357,0.704454 -2.57573,1.376515 -3.871094,2.050781 L 24.055176,79.006348 22,80 c -2.876163,1.33317 -6.047005,2.60825 -8.625,3.625 -4.9371212,1.952941 -10.3269792,3.697761 -14.9414062,5.109375 L -4.4018555,89.571777 -7.1875,90.375 -9.8325195,91.135254 C -12.21593,91.827928 -14.853191,92.512979 -17,93 L -20.280029,93.562256 -24,94 c -2.997832,0.138045 -5.282849,0.163465 -8.164062,0.167994 -4.982113,0.02242 -9.558223,0.01965 -14.296875,0.05666 l -2.358246,0.0045 -2.282379,0.0014 c -5.142694,-0.2112 -11.394944,-0.246649 -16.046978,-0.03785 -0.304981,-0.813079 3.980571,-4.661456 3.980571,-4.661456 L -61.1875,86.5 -59.113281,83.199219 -57,80 -55.355469,77.582031 -53.875,75.3125 -52.417969,72.910156 -51,70 l 0.728027,-1.992676 0.721192,-2.19873 0.696777,-2.272705 0.666504,-2.285889 0.627441,-2.186279 0.57959,-2.110596 0.526367,-2.05542 L -46,53 -45.371094,49.964844 -45,47 l 0.132813,-3.699219 -0.0078,-3.988281 0.0078,-3.949219 0.0078,-2.068115 L -45,31 l -0.609375,-2.828369 -0.570312,-2.937256 c 0,0 -0.306074,-1.878818 -0.264161,-2.822998 C -46.407603,21.594886 -46.422455,20.699645 -46,20 c 0.408095,-0.675863 1.175393,-1.074041 1.861816,-1.464111 0.814304,-0.462741 1.73315,-0.714996 2.622559,-1.008545 4.403933,-1.211841 9.242258,-2.413192 12.886719,-3.476563 C -26.39225,13.452982 -24.197804,12.723599 -22,12 l 2.95752,-1.279785 C -16.135978,9.3186587 -13.952616,8.1426478 -11.1875,6.625 -9.6529697,5.7968637 -8.1293767,4.9489867 -6.6054687,4.1015625 -5.3880294,3.4276095 -4.1943163,2.7136121 -3,2 -3,2 -1.1502815,0.3482772 0,0 Z"
       transform="translate(540,540)"
       style="fill:#eae2dc"
       id="path12"
       sodipodi:nodetypes="sssccccccccccccccccccccccccccccccccccccccccccccccccccccccccccssscccccccs" />
    <path
       d="M 0,0 C 0.67740673,-0.26674166 1.4283546,-0.33353893 2.15625,-0.34765625 2.9431131,-0.36291723 3.7200604,-0.16776491 4.5,-0.0625 5.3883634,0.05739837 6.2797224,0.16350418 7.1601562,0.33203125 8.1152644,0.514852 9.0632972,0.73876677 10,1 c 0.990001,0.2760974 2.933594,0.9492187 2.933594,0.9492187 L 15.9375,3.125 18.988281,4.4882812 22,6 24.855469,7.6054687 27.625,9.3125 30.355469,11.132813 33,13 35.488281,14.804688 37.9375,16.6875 40.390625,18.707031 43,21 l 1.490234,1.364746 1.556641,1.459473 1.56958,1.506103 1.571045,1.544678 1.553467,1.570068 1.505127,1.562744 1.440918,1.54004 L 55,33 57.035156,35.429687 58.75,37.75 60.355469,40.199219 62,43 l 0.967285,1.717285 1.020996,1.864746 1.036133,1.955811 1.038086,2.024658 1.010742,2.046143 0.993164,2.086669 0.977051,2.129883 L 70,59 l 0.937012,2.237305 0.902832,2.254882 0.853271,2.251709 L 73.5,67.9375 l 0.773682,2.039307 0.695068,1.988037 0.5896,1.974609 L 76,76 l 0.224854,2.341797 0.0603,2.373047 -0.07178,2.270752 c -0.01,1.645788 -0.568976,3.132011 -1.06103,4.678466 -2.141697,3.718483 -3.013107,5.349202 -7.171875,5.300782 L 66.116455,92.591797 64,92 61.580811,91.189453 58.960937,90.214844 56.22168,89.118896 53.375,87.9375 50.418945,86.715088 47.476562,85.46875 44.618164,84.210937 42,83 39.874023,81.921875 38.023437,80.90625 34.75,78.9375 31.753906,76.960937 29,75 26.277344,73.039062 23.6875,71.0625 21.277344,69.058594 19,67 16.816406,64.847656 14.75,62.625 12.808594,60.34375 11,58 9.3476563,55.59375 7.8125,53.125 6.375,50.601562 5,48 3.625,45.273437 2.3125,42.5 1.0976562,39.734375 0,37 -0.94140625,34.328125 -1.75,31.75 -2.421875,29.484375 -3,27 -3.5585938,23.714844 -4,20 -4.1420898,18.005371 -4.2382812,15.957031 -4.2832031,13.892578 -4.3125,11.8125 -4.4003906,9.6972656 -4.4257812,7.6445312 C -4.4257812,7.6445312 -4.4347669,5.1432263 -4,4 -3.6407331,3.0553021 -2.9835509,2.2230747 -2.2617188,1.515625 -1.6135738,0.8803942 -0.84442234,0.3325072 0,0 Z"
       transform="translate(554,249)"
       style="fill:#aba19e"
       id="path18"
       sodipodi:nodetypes="sssssccccccccccccccccccccccccccccccccccccccccccccccccccccccccccccccccccccccccccccccccccccccccsss" />
    <path
       d="M 0,0 C 0.49841628,-0.44274785 1.4553644,-0.38446915 2,0 3.0261714,0.72439494 2.8700373,2.3573152 3.2617188,3.5507813 3.5104364,4.308632 3.9523926,5.8417969 3.9523926,5.8417969 L 4.6875,8.3125 5.4792481,10.810547 6.3046875,13.300781 7.1513672,15.756348 8,18 9.6328125,21.292969 11.3125,24 13.09375,26.546875 15,29 17.09375,31.640625 19.3125,34.25 21.632812,36.71875 24,39 26.304687,40.96875 28.6875,42.75 31.21875,44.40625 34,46 37.21875,47.65625 40.6875,49.25 44.335937,50.714844 48,52 51.351562,53.003906 54.8125,53.8125 58.496094,54.484375 60.57373,54.763672 63,55 l 3.086426,0.181641 3.38623,0.146484 3.444092,0.129639 3.458252,0.104736 3.409424,0.05981 c 4.35929,-0.0541 8.33686,0.292571 12.53835,1.115547 0,0 -3.017925,1.897544 -4.003682,3.185727 -0.52231,0.682552 -1.119873,2.32251 -1.119873,2.32251 l -1.212891,2.537109 -1.298828,2.654297 -1.263672,2.642578 -1.224609,2.541016 -1.130127,2.325927 c -2.08016,4.151792 -0.859573,2.873093 -7.996338,2.674805 L 70.9375,77.5625 68.755371,77.462158 66.519531,77.335937 64.236816,77.19043 62,77 59.931152,76.731445 57.949219,76.414062 54.125,75.6875 50.40625,74.875 47,74 44.15625,73.125 41.625,72.1875 39.261719,71.152344 37,70 34.707031,68.691406 32.4375,67.25 30.214844,65.679687 28,64 25.753906,62.257812 23.5,60.375 21.265625,58.320312 19,56 16.609375,53.242187 14.25,50.25 12.003906,47.128906 10,44 8.4648438,41.089844 7.1875,38.1875 6.0585937,35.21875 5,32 4.4262695,30.125 3.8476563,28.15625 3.2863769,26.159424 2.75,24.1875 1.796875,20.542969 1,17 0.40234375,13.390625 0,10 -0.16796875,7.1289062 c 0,0 -0.009265,-1.7109743 -0.0195313,-2.5664062 C -0.19798648,3.6887476 -0.27491249,2.8140906 -0.23046875,1.9414062 -0.19732323,1.2905703 -0.4872114,0.43279445 0,0 Z"
       transform="translate(584,390)"
       style="fill:#beb6b2"
       id="path24"
       sodipodi:nodetypes="ssscccccccccccccccccccccccccccccccccsccccccscccccccccccccccccccccccccccccccccccccccsss" />
    <path
       d="m 2.0825048,-1.8911281 c 0,0 0.2676181,2.19734386 0.6460327,3.1782919 C 3.0895446,2.2229872 4.0628179,3.9842955 4.0628179,3.9842955 7.0627858,9.7518251 11.164261,17.650206 12.364496,22.292542 14.50938,27.566927 15.244997,30.998241 17,36 l 0.6875,2.875 c 0.227533,1.807047 0.33928,3.620427 0.4375,5.4375 0.07775,1.719886 0.05327,3.439541 0.03516,5.160156 -0.07258,2.541652 -0.459349,4.441391 -1.03516,6.839844 L 16,60 15.25,63.125 14,65 11.503906,64.339844 8,63 5.8383789,62.222656 3.5117188,61.371094 1.1230469,60.419922 -1.3125,59.4375 -3.8066406,58.537109 -6.1757812,57.558594 -8.3391113,56.441895 -10.958445,55.095844 c 0.01634,-2.516278 0.08473,-4.293905 0.07636,-6.949115 0,0 -0.173073,-1.338028 -0.381623,-2.023667 -0.301395,-0.990881 -1.0573,-1.78125 -1.58595,-2.671875 -0.639635,-1.077603 -2.178209,-3.188403 -3.208958,-4.275402 -0.679484,-0.716565 -1.943462,-2.140625 -1.943462,-2.140625 0,0 1.059755,-1.464783 1.525511,-2.238285 C -15.932742,33.893727 -15,32 -15,32 l 1.032959,-1.967773 1.174072,-2.219727 1.270996,-2.351318 L -10.1875,23 -8.8217773,20.474365 -7.4726562,17.933594 -6.168457,15.41748 -5,13 -4.1088867,10.781738 -3.3710938,8.7226563 -2.125,5.0625 c 0,0 0.5053144,-2.2927163 1.0550054,-3.2930483 0.7755095,-1.41127842 3.1524994,-3.6605798 3.1524994,-3.6605798 z"
       transform="translate(652,524)"
       style="fill:#b6b0aa"
       id="path28"
       sodipodi:nodetypes="cscccccccccccccccccccccssscsccccccccccccsc" />
    <path
       d="M 0,0 2.3554688,-0.69921875 4.5,-1 8,0 9.9748667,1.2319101 9.125,5.1875 9.4609375,8.2304688 10,11 11.226563,12.738281 12.75,14 16,16 19.4375,17.375 22,19 22.1875,22.3125 21,26 18.9375,29.25 17.554687,30.710937 16,32 12.5625,33.875 10.511719,34.539062 8,35 4.5820312,35.210937 0.875,35.25 -2.6328125,35.203125 -6,35 -9.1875,34.734375 -12,34 -14.117188,32.25 -15.875,30 -17.636719,27.542969 -19,25 -19.582031,22.613281 -19.6875,20.3125 -19.492187,18.066406 -19,16 -17.3125,12.75 -15,10 -12.875,7.4375 -10,5 -7.7382812,3.578125 -5.1875,2.1875 -2.5742188,0.98046875 Z"
       transform="translate(718,413)"
       style="fill:#eee8e2"
       id="path32"
       sodipodi:nodetypes="ccccccccccccccccccccccccccccccccccccccccccc" />
    <path
       d="M 6.375,39 4,40 1.4609375,41.046875 -1,42 -4.375,43.25 -8,44 -10.667969,44.292969 -13.5625,44.4375 -16.402344,44.394531 -19,44 -21.003906,42.949219 -22.625,41.625 -25,39 -26,37 -26.34375,34.785156 -26.5,32.0625 -26.460937,29.078125 -26,26 -24.789062,23.109375 -23.125,20.3125 -21.1875,17.566406 -19,15 -16.625,12.777344 -14.125,10.75 -11.574219,8.8671875 -9,7 -6.3945312,4.8828125 -3.9375,2.875 -1.7148437,1.0546875 C -2.6365554,2.3495638 7.3096844,37.827671 6.375,39 Z"
       transform="translate(370,754)"
       style="fill:#cfc8c3"
       id="path34"
       sodipodi:nodetypes="cccccccccccccccccccccccccccccc" />
    <path
       d="M -0.03881059,-0.7354059 C 2.9091102,10.263702 20.937867,31.596442 13,36 L 9.7539063,37.800781 7.7297363,38.574463 5.5625,39.3125 3.3659668,40.091553 1.171875,40.828125 c 0,0 -1.44008731,0.447116 -2.16601562,0.650391 C -1.6593973,41.664801 -2.3235412,41.859743 -3,42 c -1.0271134,0.212962 -2.0648923,0.387573 -3.109375,0.484375 -0.8561006,0.07934 -1.7185591,0.09683 -2.578125,0.07813 -0.7766712,-0.0169 -1.554318,-0.06816 -2.324219,-0.171875 C -11.681103,42.300452 -12.351902,42.190195 -13,42 -14.031972,41.697152 -15.086837,41.38067 -16,40.8125 -16.763905,40.337198 -17.433361,39.698843 -18,39 -18.546849,38.325565 -18.985182,37.55422 -19.3125,36.75 -19.668694,35.874831 -19.84059,34.931334 -20,34 -20.18711,32.906828 -20.307222,31.796557 -20.3125,30.6875 -20.3184,29.453941 -20.21862,28.214045 -20,27 c 0.233809,-1.298378 0.632353,-2.565333 1.0625,-3.8125 0.23755,-0.688753 0.53137,-1.357678 0.835938,-2.019531 C -17.762705,20.431603 -17.393106,19.708891 -17,19 c 0.462311,-0.833688 0.964805,-1.644935 1.476562,-2.449219 0.549616,-0.863783 1.124818,-1.711339 1.710938,-2.550781 0.596111,-0.85375 1.204699,-1.699228 1.835937,-2.527344 C -11.336885,10.633467 -10.679016,9.8076901 -10,9 -9.3116023,8.1811499 -7.8747481,6.59522 -7.8747481,6.59522 L -5.7263106,4.4116263 -3.7380293,2.47022 -2.0388106,0.97412627 Z"
       transform="translate(255,732)"
       style="fill:#b0aba7"
       id="path36"
       sodipodi:nodetypes="cscccccsssssssssssssssssssccccc" />
    <path
       d="M 0,0 C 9.8109802,-0.79250062 19.431449,4.1037211 28.328857,5.9765625 L 31.25977,6.5787098 29.8125,9.9179688 28,13 26.519531,15.414063 24.8125,17.625 22.914062,19.941406 21,22 19.335937,23.464844 17.6875,24.5625 14,26 11.511719,26.335937 8.875,26.4375 6.3007812,26.320312 4,26 1.0625,24.8125 -1,23 -2.8125,21 -4,18 -4.3203125,15.476563 -4.4375,12.625 -4.3359375,9.7421875 -4,7 -3.4140625,4.6953125 -2.5625,2.75 c 0,0 1.3136199,-2.64911933 2.5625,-2.75 z"
       transform="translate(592,588)"
       style="fill:#363537"
       id="path46"
       sodipodi:nodetypes="scccccccccccccccccccccccccs" />
    <path
       d="M 0,0 0.66389465,1.505188 1,4 0.44950867,6.7833862 -0.4230957,9.9482422 -0.92793958,13.936574 c -0.60689032,2.217479 -1.14564682,3.982541 -1.32801132,6.260325 l -0.049469,3.128296 0.018265,3.202698 0.056686,3.300232 0.0031,3.501892 -0.00114,3.603577 0.014404,3.63623 0.026611,3.680176 0.053467,3.744629 0.046143,3.712402 -0.00618,3.591492 -0.011398,3.467102 0.087357,3.37384 -0.029495,3.088074 -0.2392273,2.715485 c -1.2476302,4.470872 -8.5138778,3.062557 -11.4573138,3.186371 l -2.412109,0.0034 c -1.988823,0.0028 -2.537305,-0.516856 -2.336182,-3.206298 0.29486,-5.102663 0.73202,-10.563214 1.691651,-14.766341 l 0.716797,-3.000732 0.771484,-3.096924 0.806641,-3.282471 0.830078,-3.326904 0.845215,-3.291016 L -12,34 l 0.771973,-2.873047 0.747558,-2.705078 0.742676,-2.60376 L -9,23.3125 -8.262207,20.87915 -7.5195312,18.519531 -6.7719727,16.240723 -6,14 -5.1694336,11.724121 -4.3242187,9.5117188 -3.4941406,7.4460449 -2.6875,5.5 -1.1992187,1.96875 Z"
       transform="translate(383,533)"
       style="fill:#b5b0ad"
       id="path48"
       sodipodi:nodetypes="ccccccccccccccccccccccscccccccccccccccccccccc" />
    <path
       d="M 0,0 2.1171875,0.1953125 5,1 6.8564453,1.7121582 8.8828125,2.5585938 10.980469,3.4785156 13.125,4.4375 15.292969,5.3847656 17.382812,6.3085937 21,8 l 3.995081,2 c -1.817392,2.89867 -3.144953,5.211584 -5.120081,8 -1.830036,2.58358 -0.858155,1.02796 -1.320313,1.511719 C 18.059118,20.03045 17.546312,20.535012 17,21 16.386227,21.522407 15.729459,21.993187 15.070313,22.457031 14.395741,22.931731 13.701558,23.378674 13,23.8125 12.314124,24.236629 11.618373,24.645583 10.910156,25.03125 7.8010164,26.785991 3.7851708,27.351717 0.5,27.4375 -1.6815745,27.508843 -3.0977347,27.159617 -4.5234375,25.730469 -5.857452,24.275388 -7.0787775,22.559746 -8,21 -9.0742385,19.435288 -9.3515928,17.609356 -9.375,15.875 -9.3898941,14.577385 -9.3412467,13.25203 -9,12 -8.456063,10.459284 -7.5651199,9.0842409 -6.75,7.8125 -5.8638173,6.4542481 -4.9158705,5.1965865 -4,4 -2.8673901,2.2313086 -1.7627799,1.1450565 0,0 Z"
       transform="translate(641,579)"
       style="fill:#2c2f33"
       id="path50"
       sodipodi:nodetypes="cccccccccccsssssccccccccc" />
    <path
       d="M 0,0 2.84375,-0.36328125 6,-0.5625 9.1367188,-0.51171875 12,0 c 0,0 1.491939,0.81763164 2.144531,1.3554687 C 14.77005,1.8709934 15.304854,2.49307 15.8125,3.125 c 0.491261,0.6115335 1.324219,1.9453125 1.324219,1.9453125 0,0 0.701843,1.2437666 0.863281,1.9296875 0.229299,0.9742475 0.125,3 0.125,3 L 17,13 16.125,14.859375 15.125,16.75 13,20 10,22 H 7 L 6.6875,24.5625 6,28 4.6796875,29.992187 3.0625,31.9375 1.4726562,33.777344 0,35 -2,34 -0.1875,31.875 2,29 3.25,25.4375 3,22 1.4101562,20.804687 -0.6875,19.8125 -2.921875,18.878906 -5,18 -7.4375,16.25 -8.5507876,14 -9.1484438,12.109375 -9.392242,10.026424 V 6.1585456 C -9.064852,3.5424136 -9.3328485,3.5859313 -6,2 l 2.5,-1.25 z"
       transform="translate(736,410)"
       style="fill:#252626"
       id="path54"
       sodipodi:nodetypes="cccccaacacccccccccccccccccccccccccccccc" />
    <path
       d="M 0,0 C 1.010625,-0.20625 2.02125,-0.4125 3.0625,-0.625 4.5165625,-0.315625 4.5165625,-0.315625 6,0 7.60875,0.86625 7.60875,0.86625 9.25,1.75 10.1575,2.4925 11.065,3.235 12,4 12.388008,4.6135937 12.776016,5.2271875 13.175781,5.859375 13.447773,6.5657812 13.719766,7.2721875 14,8 c 0.07541,1.0982813 0.07541,1.0982813 0.152344,2.21875 -0.0709,0.752812 -0.141797,1.505625 -0.214844,2.28125 -0.116016,0.782461 -0.232031,1.564922 -0.351562,2.371094 C 13.392578,15.573633 13.199219,16.276172 13,17 12.360625,17.845625 11.72125,18.69125 11.0625,19.5625 10.051875,20.036875 9.04125,20.51125 8,21 7.2149609,21.134062 6.4299219,21.268125 5.6210937,21.40625 4.7561328,21.457812 3.8911719,21.509375 3,21.5625 2.1363281,21.519961 1.2726562,21.477422 0.3828125,21.433594 -0.40351562,21.290508 -1.1898438,21.147422 -2,21 -3.03125,20.38125 -4.0625,19.7625 -5.125,19.125 -5.74375,18.09375 -6.3625,17.0625 -7,16 -7.1778906,15.225273 -7.3557812,14.450547 -7.5390625,13.652344 -7.6086719,12.797695 -7.6782813,11.943047 -7.75,11.0625 -7.7061719,10.200117 -7.6623437,9.3377344 -7.6171875,8.4492188 -7.4135156,7.6409766 -7.2098437,6.8327344 -7,6 -6.5488281,5.3464453 -6.0976562,4.6928906 -5.6328125,4.0195312 -5.0527344,3.4768359 -4.4726562,2.9341406 -3.875,2.375 -3.2343359,1.92125 -2.5936719,1.4675 -1.9335937,1 -1.2955078,0.67 -0.65742187,0.34 0,0 Z"
       transform="translate(667,368)"
       style="fill:#161616"
       id="path64" />
    <path
       d="M 0,0 C 2.9829275,0.56935427 1.280959,1.7123836 4.1875,2.875 L 7,4 9.625,5.75 12,8 13.5625,11.375 15,14 17,13.625 19,12 20.5625,9.875 c 0,0 0.731246,-1.5265313 1.4375,-1.875 0.988577,-0.4877675 3.307085,0 3.307085,0 L 25,10.1875 24,13 21.625,15.8125 19,18 H 16 L 15.6875,20.5625 15,24 13.679688,25.992187 12.0625,27.9375 10.472656,29.777344 9,31 7,30 8.8125,27.875 11,25 12.25,21.4375 12,18 10.410156,16.804687 8.3125,15.8125 6.078125,14.878906 4,14 1.5625,12.25 0,10 -0.4921875,8.0390625 -0.8125,5.875 C -1.2177955,3.5407656 -1.0057548,2.0115097 0,0 Z"
       transform="translate(727,414)"
       style="fill:#101010"
       id="path80"
       sodipodi:nodetypes="ccccccccccacccccccccccccccccccccccccc" />
    <path
       d="M 0,0 C 2.8447795,-0.01847311 5.7475685,1.0874894 8.0839844,1.8632812 L 11.1875,3 14.326172,4.0429687 17.292969,5.0625 20.028076,6.0351562 c 0,0 1.584534,0.3440225 1.971924,0.9648438 0.352924,0.5655875 0.376969,1.4501463 0,2 -0.573858,0.8370411 -2.839844,1.097656 -2.839844,1.097656 L 17.223145,10.594238 15,11 12.515137,11.237793 9.8710938,11.371094 7.1777344,11.419922 4.4375,11.4375 C 0.56925913,11.720893 -3.5928482,11.270597 -6.9668018,11.009377 -5.5628867,7.01667 -2.4639222,3.0620413 0,0 Z"
       transform="translate(599,340)"
       style="fill:#bab4b0"
       id="path90"
       sodipodi:nodetypes="ccccccssccccccccc" />
    <path
       d="m 11.8125,1.984375 c 6.981744,3.4777835 12.44588,7.3015733 17.590332,12.12915 3.692775,3.373363 6.73268,7.704957 9.222168,11.636475 3.532738,5.268899 4.898826,8.837363 6.375,14.25 0.07202,1.594174 -0.236762,5.318818 -1,4 L 42.363281,41.171875 41.372803,39.068115 40.3125,36.75 39.218994,34.465088 38.117187,32.207031 37.022461,29.98291 36,28 C 33.469302,23.944327 31.298184,21.502466 28.460937,18.21875 L 26.8125,16.4375 25.03125,14.722656 23,13 20.53125,11.183594 C 16.591897,8.3971788 12.871791,6.3914987 8.625,4.484375 L 5.3125,3.125 c -12.4194786,-4.4421567 1.511395,-2.84929186 6.5,-1.140625 z"
       transform="translate(448,516)"
       style="fill:#c3bcb6"
       id="path94"
       sodipodi:nodetypes="ccccsccccccccccccccc" />
    <path
       d="m 1.0817871,2.2597656 c 0,0 -0.03972,2.0976026 -0.054443,3.1464844 C 1.011224,6.554641 1.0047186,7.7031497 0.99023438,8.8515625 0.97489546,10.067739 0.95731393,11.283889 0.9375,12.5 0.918194,13.684933 0.8894481,14.86971 0.8730469,16.054687 0.8570081,17.213483 0.8453358,18.372356 0.8398438,19.53125 0.8345088,20.657051 0.8109575,21.783254 0.84008794,22.908691 0.86678609,23.94016 0.86529886,24.977016 1,26 c 0.1144311,0.869044 0.3346407,1.721742 0.548584,2.571777 0.183895,0.730648 0.4339015,1.443241 0.6311035,2.17041 C 2.47279,31.822983 3.4361903,32.96861 3,34 2.5782614,34.997219 1.2150925,35.28388 0.1875,35.625 -2.4217508,36.372271 -3.8097447,36.44651 -4,34 L -4.1611328,31.927979 C -4.2206301,28.907371 -4.240492,26.553138 -4.25,23.5625 L -4.25757,20.542236 C -4.26003,18.57527 -4.205582,16.60958 -4.15381,14.643555 -3.9853435,11.151483 -3.5350638,8.4586982 -2.5625,5.1875 -2.3145432,4.3617019 -2.0611921,3.5360745 -1.7539062,2.7304688 -1.5296707,2.1425948 -1,1 -1,1 -0.00807354,-1.2768055 1.1197667,0.06478335 1.0817871,2.2597656 Z"
       transform="translate(544,503)"
       style="fill:#b9b3ae"
       id="path98"
       sodipodi:nodetypes="ssssssssssscscccccsss" />
    <path
       d="M 1.0664987,-1.2967254 1.3125,3 1.2695312,4.9375 1,7 0.38671875,9 -0.5,11 -1.6015625,13.007813 -3,15 -4.8359375,16.992187 -6.875,18.875 -8.9414063,20.5625 -11,22 -13.027344,23.125 -14.8125,23.875 -17,24 -15,21 -13.433594,19.015625 -12,17 -11.0625,13.75 -10,11 -7.125,9.625 -4,8 -2.7539063,6.0429687 -1.6875,3.8125 -0.76171875,1.6445312 c 0.4922418,-1.22635854 0.56871976,-2.9412566 1.82821745,-2.9412566 z"
       transform="translate(753,421)"
       style="fill:#ebece9"
       id="path120"
       sodipodi:nodetypes="cccccccccccccccccccccccccc" />
    <path
       d="M 0,0 C 0,0 0.51372307,0.93363616 0.66015625,1.4414062 0.89855423,2.2680725 0.99789058,3.1396476 1,4 1.0026938,5.0987097 0.76846929,6.1867519 0.58203125,7.2695312 0.37695937,8.4605306 0.06150008,9.6299041 -0.1875,10.8125 c -0.25107257,1.192439 -0.37338797,2.416938 -0.73046875,3.582031 -0.27556615,0.899125 -0.49873105,1.830737 -1.25876275,2.384555 -0.5891968,0.429334 -1.2959447,0.578409 -2.002956,0.400601 C -4.8809012,17.003337 -5.6794184,16.648095 -6,16 -6.3074645,15.378423 -5.980852,14.604758 -5.8398437,13.925781 -5.6524546,13.023474 -5.2381201,12.183649 -4.9375,11.3125 -4.6261351,10.410214 -4.3311483,9.5021187 -4.0039062,8.6054688 -3.6848139,7.731149 -3.3389259,6.8668242 -3,6 -2.7209733,5.2863719 -2.4500892,4.5693043 -2.1523438,3.8632813 -1.9057017,3.2784361 -1.6778599,2.68281 -1.375,2.125 -0.9724344,1.3835511 0,0 0,0 Z"
       transform="translate(383,533)"
       style="fill:#bdb5af"
       id="path252"
       sodipodi:nodetypes="cssssssssssssssc" />
  </g>
</svg>
